<mxfile host="app.diagrams.net" modified="2021-02-25T06:51:42.178Z" agent="5.0 (Windows NT 10.0; Win64; x64) AppleWebKit/537.36 (KHTML, like Gecko) Chrome/88.0.4324.182 Safari/537.36" etag="m2cwUl0kKV9EuaIPubue" version="14.4.2" type="github">
  <diagram id="v7xRjhGTiLrEzlIR2cv4" name="Page-1">
    <mxGraphModel dx="1447" dy="803" grid="1" gridSize="10" guides="1" tooltips="1" connect="1" arrows="1" fold="1" page="1" pageScale="1" pageWidth="850" pageHeight="1100" math="0" shadow="0">
      <root>
        <mxCell id="0" />
        <mxCell id="1" parent="0" />
        <mxCell id="Fa7fThJuhcwn9Txv_eZM-3" style="edgeStyle=orthogonalEdgeStyle;rounded=0;orthogonalLoop=1;jettySize=auto;html=1;entryX=0;entryY=0.5;entryDx=0;entryDy=0;" edge="1" parent="1" source="Fa7fThJuhcwn9Txv_eZM-1" target="Fa7fThJuhcwn9Txv_eZM-2">
          <mxGeometry relative="1" as="geometry" />
        </mxCell>
        <mxCell id="Fa7fThJuhcwn9Txv_eZM-1" value="Mulai" style="strokeWidth=2;html=1;shape=mxgraph.flowchart.terminator;whiteSpace=wrap;" vertex="1" parent="1">
          <mxGeometry x="50" y="20" width="100" height="60" as="geometry" />
        </mxCell>
        <mxCell id="Fa7fThJuhcwn9Txv_eZM-6" style="edgeStyle=orthogonalEdgeStyle;rounded=0;orthogonalLoop=1;jettySize=auto;html=1;entryX=0;entryY=0.5;entryDx=0;entryDy=0;" edge="1" parent="1" source="Fa7fThJuhcwn9Txv_eZM-2" target="Fa7fThJuhcwn9Txv_eZM-4">
          <mxGeometry relative="1" as="geometry" />
        </mxCell>
        <mxCell id="Fa7fThJuhcwn9Txv_eZM-2" value="Input &lt;br&gt;nilai sisi a :&amp;nbsp;" style="shape=parallelogram;html=1;strokeWidth=2;perimeter=parallelogramPerimeter;whiteSpace=wrap;rounded=1;arcSize=12;size=0.23;" vertex="1" parent="1">
          <mxGeometry x="210" y="20" width="100" height="60" as="geometry" />
        </mxCell>
        <mxCell id="Fa7fThJuhcwn9Txv_eZM-7" style="edgeStyle=orthogonalEdgeStyle;rounded=0;orthogonalLoop=1;jettySize=auto;html=1;entryX=0;entryY=0.5;entryDx=0;entryDy=0;" edge="1" parent="1" source="Fa7fThJuhcwn9Txv_eZM-4" target="Fa7fThJuhcwn9Txv_eZM-5">
          <mxGeometry relative="1" as="geometry" />
        </mxCell>
        <mxCell id="Fa7fThJuhcwn9Txv_eZM-4" value="Input&lt;br&gt;nilai sisi b :" style="shape=parallelogram;html=1;strokeWidth=2;perimeter=parallelogramPerimeter;whiteSpace=wrap;rounded=1;arcSize=12;size=0.23;" vertex="1" parent="1">
          <mxGeometry x="360" y="20" width="100" height="60" as="geometry" />
        </mxCell>
        <mxCell id="Fa7fThJuhcwn9Txv_eZM-11" style="edgeStyle=orthogonalEdgeStyle;rounded=0;orthogonalLoop=1;jettySize=auto;html=1;entryX=0.5;entryY=0;entryDx=0;entryDy=0;entryPerimeter=0;" edge="1" parent="1" source="Fa7fThJuhcwn9Txv_eZM-5" target="Fa7fThJuhcwn9Txv_eZM-8">
          <mxGeometry relative="1" as="geometry" />
        </mxCell>
        <mxCell id="Fa7fThJuhcwn9Txv_eZM-5" value="Input&lt;br&gt;nilai sisi c :" style="shape=parallelogram;html=1;strokeWidth=2;perimeter=parallelogramPerimeter;whiteSpace=wrap;rounded=1;arcSize=12;size=0.23;" vertex="1" parent="1">
          <mxGeometry x="510" y="20" width="100" height="60" as="geometry" />
        </mxCell>
        <mxCell id="Fa7fThJuhcwn9Txv_eZM-15" style="edgeStyle=orthogonalEdgeStyle;rounded=0;orthogonalLoop=1;jettySize=auto;html=1;" edge="1" parent="1" source="Fa7fThJuhcwn9Txv_eZM-8" target="Fa7fThJuhcwn9Txv_eZM-14">
          <mxGeometry relative="1" as="geometry" />
        </mxCell>
        <mxCell id="Fa7fThJuhcwn9Txv_eZM-16" style="edgeStyle=orthogonalEdgeStyle;rounded=0;orthogonalLoop=1;jettySize=auto;html=1;" edge="1" parent="1" source="Fa7fThJuhcwn9Txv_eZM-8">
          <mxGeometry relative="1" as="geometry">
            <mxPoint x="560" y="299.9999999999999" as="targetPoint" />
          </mxGeometry>
        </mxCell>
        <mxCell id="Fa7fThJuhcwn9Txv_eZM-8" value="nilai a, b, c &amp;gt;= 1" style="strokeWidth=2;html=1;shape=mxgraph.flowchart.decision;whiteSpace=wrap;" vertex="1" parent="1">
          <mxGeometry x="510" y="120" width="100" height="100" as="geometry" />
        </mxCell>
        <mxCell id="Fa7fThJuhcwn9Txv_eZM-10" value="Tidak" style="text;html=1;align=center;verticalAlign=middle;resizable=0;points=[];autosize=1;" vertex="1" parent="1">
          <mxGeometry x="450" y="150" width="40" height="20" as="geometry" />
        </mxCell>
        <mxCell id="Fa7fThJuhcwn9Txv_eZM-12" value="" style="endArrow=none;html=1;entryX=0;entryY=0.5;entryDx=0;entryDy=0;entryPerimeter=0;" edge="1" parent="1" target="Fa7fThJuhcwn9Txv_eZM-8">
          <mxGeometry width="50" height="50" relative="1" as="geometry">
            <mxPoint x="190" y="170" as="sourcePoint" />
            <mxPoint x="460" y="200" as="targetPoint" />
          </mxGeometry>
        </mxCell>
        <mxCell id="Fa7fThJuhcwn9Txv_eZM-13" value="" style="endArrow=none;html=1;" edge="1" parent="1">
          <mxGeometry width="50" height="50" relative="1" as="geometry">
            <mxPoint x="190" y="170" as="sourcePoint" />
            <mxPoint x="190" y="50" as="targetPoint" />
          </mxGeometry>
        </mxCell>
        <mxCell id="Fa7fThJuhcwn9Txv_eZM-14" value="Print&lt;br&gt;&lt;span style=&quot;color: rgb(36 , 41 , 46) ; font-family: , &amp;#34;consolas&amp;#34; , &amp;#34;liberation mono&amp;#34; , &amp;#34;menlo&amp;#34; , monospace ; background-color: rgb(255 , 255 , 255)&quot;&gt;Nilai tidak bisa &lt;br&gt;minus atau 0.&lt;/span&gt;" style="shape=parallelogram;html=1;strokeWidth=2;perimeter=parallelogramPerimeter;whiteSpace=wrap;rounded=1;arcSize=12;size=0.23;" vertex="1" parent="1">
          <mxGeometry x="220" y="140" width="130" height="60" as="geometry" />
        </mxCell>
        <mxCell id="Fa7fThJuhcwn9Txv_eZM-20" style="edgeStyle=orthogonalEdgeStyle;rounded=0;orthogonalLoop=1;jettySize=auto;html=1;" edge="1" parent="1" source="Fa7fThJuhcwn9Txv_eZM-17" target="Fa7fThJuhcwn9Txv_eZM-18">
          <mxGeometry relative="1" as="geometry" />
        </mxCell>
        <mxCell id="Fa7fThJuhcwn9Txv_eZM-21" style="edgeStyle=orthogonalEdgeStyle;rounded=0;orthogonalLoop=1;jettySize=auto;html=1;entryX=0.5;entryY=0;entryDx=0;entryDy=0;" edge="1" parent="1" source="Fa7fThJuhcwn9Txv_eZM-17" target="Fa7fThJuhcwn9Txv_eZM-19">
          <mxGeometry relative="1" as="geometry" />
        </mxCell>
        <mxCell id="Fa7fThJuhcwn9Txv_eZM-17" value="a&lt;sup&gt;2&lt;/sup&gt;&amp;nbsp;+ b&lt;sup&gt;2&lt;/sup&gt;&amp;nbsp;= c&lt;sup&gt;2&lt;/sup&gt;&lt;br&gt;&amp;nbsp;" style="strokeWidth=2;html=1;shape=mxgraph.flowchart.decision;whiteSpace=wrap;" vertex="1" parent="1">
          <mxGeometry x="510" y="300" width="100" height="100" as="geometry" />
        </mxCell>
        <mxCell id="Fa7fThJuhcwn9Txv_eZM-18" value="&lt;span style=&quot;color: rgb(36 , 41 , 46) ; font-family: , &amp;#34;consolas&amp;#34; , &amp;#34;liberation mono&amp;#34; , &amp;#34;menlo&amp;#34; , monospace ; background-color: rgb(255 , 255 , 255)&quot;&gt;Print&lt;br&gt;Bukan Triple Phytagoras&lt;/span&gt;" style="shape=parallelogram;html=1;strokeWidth=2;perimeter=parallelogramPerimeter;whiteSpace=wrap;rounded=1;arcSize=12;size=0.23;" vertex="1" parent="1">
          <mxGeometry x="250" y="480" width="190" height="80" as="geometry" />
        </mxCell>
        <mxCell id="Fa7fThJuhcwn9Txv_eZM-30" style="edgeStyle=orthogonalEdgeStyle;rounded=0;orthogonalLoop=1;jettySize=auto;html=1;entryX=0.6;entryY=0.167;entryDx=0;entryDy=0;entryPerimeter=0;" edge="1" parent="1" source="Fa7fThJuhcwn9Txv_eZM-19" target="Fa7fThJuhcwn9Txv_eZM-25">
          <mxGeometry relative="1" as="geometry">
            <Array as="points">
              <mxPoint x="560" y="680" />
            </Array>
          </mxGeometry>
        </mxCell>
        <mxCell id="Fa7fThJuhcwn9Txv_eZM-19" value="&lt;span style=&quot;color: rgb(36 , 41 , 46) ; font-family: , &amp;#34;consolas&amp;#34; , &amp;#34;liberation mono&amp;#34; , &amp;#34;menlo&amp;#34; , monospace ; background-color: rgb(255 , 255 , 255)&quot;&gt;Print&lt;br&gt;Segitiga adalah triple &lt;br&gt;phytagoras&lt;/span&gt;" style="shape=parallelogram;html=1;strokeWidth=2;perimeter=parallelogramPerimeter;whiteSpace=wrap;rounded=1;arcSize=12;size=0.23;" vertex="1" parent="1">
          <mxGeometry x="470" y="480" width="180" height="80" as="geometry" />
        </mxCell>
        <mxCell id="Fa7fThJuhcwn9Txv_eZM-22" value="Tidak" style="text;html=1;align=center;verticalAlign=middle;resizable=0;points=[];autosize=1;" vertex="1" parent="1">
          <mxGeometry x="460" y="320" width="40" height="20" as="geometry" />
        </mxCell>
        <mxCell id="Fa7fThJuhcwn9Txv_eZM-23" value="Ya" style="text;html=1;align=center;verticalAlign=middle;resizable=0;points=[];autosize=1;" vertex="1" parent="1">
          <mxGeometry x="565" y="410" width="30" height="20" as="geometry" />
        </mxCell>
        <mxCell id="Fa7fThJuhcwn9Txv_eZM-24" value="Ya" style="text;html=1;align=center;verticalAlign=middle;resizable=0;points=[];autosize=1;" vertex="1" parent="1">
          <mxGeometry x="565" y="230" width="30" height="20" as="geometry" />
        </mxCell>
        <mxCell id="Fa7fThJuhcwn9Txv_eZM-25" value="Mulai" style="strokeWidth=2;html=1;shape=mxgraph.flowchart.terminator;whiteSpace=wrap;" vertex="1" parent="1">
          <mxGeometry x="510" y="670" width="100" height="60" as="geometry" />
        </mxCell>
        <mxCell id="Fa7fThJuhcwn9Txv_eZM-33" value="" style="endArrow=none;html=1;" edge="1" parent="1">
          <mxGeometry width="50" height="50" relative="1" as="geometry">
            <mxPoint x="340" y="640" as="sourcePoint" />
            <mxPoint x="560" y="640" as="targetPoint" />
          </mxGeometry>
        </mxCell>
        <mxCell id="Fa7fThJuhcwn9Txv_eZM-34" value="" style="endArrow=none;html=1;" edge="1" parent="1">
          <mxGeometry width="50" height="50" relative="1" as="geometry">
            <mxPoint x="340" y="640" as="sourcePoint" />
            <mxPoint x="340" y="560" as="targetPoint" />
          </mxGeometry>
        </mxCell>
      </root>
    </mxGraphModel>
  </diagram>
</mxfile>
